<svg xmlns="http://www.w3.org/2000/svg" viewBox="0 0 24 24">
  <g transform="translate(12 12) scale(1.4) translate(-8.575 -8.5)">
    <path fill="#9FB5C3" fill-rule="evenodd" d="M8.575 3.085c1.402-.034 4.054-.312 5.547-1.132.295-.162.787.052.79.388.034 4.303.083 10.369-4.806 12.44-.487.206-1.008.313-1.53.32v-2.995c2.176-.018 3.528-.995 3.984-1.607.193-.258.14-.624-.119-.816-.259-.193-.624-.14-.817.118-.218.294-1.21 1.119-3.048 1.137V3.085zm4.334 3.523c.038-.367-.341-.584-.697-.489l-1.129.303-1.129.302c-.356.096-.575.474-.36.772.01.015.021.029.032.043.147.192.33.352.539.473.209.12.439.199.678.23.239.032.482.016.715-.046.233-.063.451-.17.642-.317.192-.147.352-.33.473-.539.12-.209.199-.439.23-.678.003-.018.005-.036.006-.054z"/>
    <path fill="#6B7F8E" fill-rule="evenodd" d="M8.575 3.084c-.03-.001-.06-.002-.09-.002-1.385-.027-4.093-.3-5.608-1.133-.295-.162-.787.052-.79.388-.034 4.303-.082 10.369 4.807 12.44.534.226 1.108.333 1.68.32v-2.995c-.029 0-.059 0-.089 0-2.212 0-3.585-.99-4.046-1.607-.192-.258-.139-.624.12-.816.258-.193.623-.14.816.118.221.297 1.233 1.137 3.109 1.137.03 0 .06 0 .09 0V3.084zm-.999 4.469c.056.364-.311.601-.671.524l-1.144-.243-1.143-.243c-.36-.076-.599-.442-.4-.752.01.015.02-.03.03-.045.137-.199.311-.369.513-.5.202-.131.428-.222.665-.266.237-.044.48-.04.716.01.236.05.46.146.658.283.199.136.369.311.5.513.131.202.222.428.266.665.003.017.006.035.01.053z"/>
  </g>
</svg>